# xmcd
#
# Track frame offsets: 
#        150
#        11642
#        27555
#        44910
#        57592
#        71020
#        84440
#        101520
#        114937
#        132280
#
# Disc length: 1928 seconds
#
# Revision: 2
# Processed by: cddbd v1.5.1PL0 Copyright (c) Steve Scherf et al.
# Submitted via: ExactAudioCopy v0.95a5
#
DISCID=8b07860a
DTITLE=Waylon Jennings - Waylon And Company
DYEAR=1983
DGENRE=Country
TTITLE0=Hold On, I'm Comin'
TTITLE1=Leave Them Boys Alone
TTITLE2=Spanish Johnny
TTITLE3=Just To Satisfy You
TTITLE4=So You Want To Be A Cowboy Singer
TTITLE5=I Maybe Used
TTITLE6=Sight For Sore Eyes
TTITLE7=I'll Find It Where I Can
TTITLE8=The Conversation
TTITLE9=Mason-Dixon Lines
EXTD=(c)1983 RCA Records - PL 84826\nupc 0035628482627
EXTT0=with Jerry Reed
EXTT1=with Hank Williams, Jr.
EXTT2=with Emmylou Harris
EXTT3=with Willie Nelson
EXTT4=with Tony Joe White
EXTT5=
EXTT6=with Jessi Colter
EXTT7=with James Garner
EXTT8=with Hank Williams, Jr.
EXTT9=with Mel Tillis
PLAYORDER=
